<svg width="24" height="24" viewBox="0 0 24 24" role="img" aria-labelledby="title-gear" xmlns="http://www.w3.org/2000/svg">
  <title id="title-gear">Settings</title>
  <path d="M19.4 12.9c.04-.3.06-.6.06-.9s-.02-.6-.06-.9l2.11-1.65a.5.5 0 0 0 .12-.63l-2-3.46a.5.5 0 0 0-.6-.22l-2.49 1a7.02 7.02 0 0 0-1.56-.9l-.38-2.65A.5.5 0 0 0 12 2h-4a.5.5 0 0 0-.5.43l-.38 2.65c-.56.22-1.08.52-1.56.9l-2.49-1a.5.5 0 0 0-.6.22l-2 3.46a.5.5 0 0 0 .12.63L4.6 11.1c-.04.3-.06.6-.06.9s.02.6.06.9L2.49 14.55a.5.5 0 0 0-.12.63l2 3.46c.14.24.43.34.68.22l2.49-1c.48.38 1 .68 1.56.9l.38 2.65c.05.27.27.43.5.43h4c.23 0 .45-.16.5-.43l.38-2.65c.56-.22 1.08-.52 1.56-.9l2.49 1c.25.12.54.02.68-.22l2-3.46a.5.5 0 0 0-.12-.63L19.4 12.9zM12 15.5A3.5 3.5 0 1 1 12 8.5a3.5 3.5 0 0 1 0 7z" fill="currentColor"/>
</svg>
